<svg xmlns="http://www.w3.org/2000/svg" width="166" height="166" viewBox="0 0 166 166" fill="none"><path fill-rule="evenodd" clip-rule="evenodd" d="M143.775 14.3397C143.775 6.41902 137.354 -0.00195312 129.433 -0.00195312H14.3418C6.42109 -0.00195312 0.00012207 6.41903 0.00012207 14.3397V129.431C0.00012207 137.352 6.42108 143.773 14.3417 143.773H89.2722V151.66C89.2722 159.581 95.6932 166.002 103.614 166.002H151.658C159.579 166.002 166 159.581 166 151.66V103.616C166 95.6952 159.579 89.2742 151.658 89.2742H143.775V14.3397ZM143.775 89.2742H103.614C95.6932 89.2742 89.2722 95.6952 89.2722 103.616V143.773H129.433C137.354 143.773 143.775 137.352 143.775 129.431V89.2742Z" fill="#FF4306"></path></svg>